<?xml version="1.0" encoding="UTF-8"?>
<svg width="40px" height="40px" viewBox="0 0 40 40" version="1.1" xmlns="http://www.w3.org/2000/svg" xmlns:xlink="http://www.w3.org/1999/xlink">
    <!-- Generator: Sketch 52.5 (67469) - http://www.bohemiancoding.com/sketch -->
    <title>审批管理</title>
    <desc>Created with Sketch.</desc>
    <g id="审批管理" stroke="none" stroke-width="1" fill="none" fill-rule="evenodd">
        <g id="shenpi-3" transform="translate(0.000000, 2.000000)" fill-rule="nonzero">
            <path d="M31.9060403,22.1114094 C27.4356226,22.1114094 23.8116331,25.7353989 23.8116331,30.2058166 C23.8116331,34.6760626 27.4357942,38.2997763 31.9060403,38.2997763 C36.3762108,38.2997763 40,34.6759871 40,30.2058166 C40,25.7355705 36.3758389,22.1114094 31.9060403,22.1114094 Z M36.3731544,32.9865772 L36.3731544,33.6997763 C36.3761724,34.0158663 36.2519392,34.3198888 36.0284196,34.5434084 C35.8049,34.766928 35.5008775,34.8911612 35.1847875,34.8881432 L28.6246085,34.8881432 C28.3084413,34.8912822 28.0043027,34.7671024 27.7806856,34.5435695 C27.5570685,34.3200365 27.4327742,34.0159447 27.4357942,33.6997763 L27.4357942,32.9865772 C27.4326512,32.6703719 27.556906,32.3662083 27.78055,32.1426484 C28.0041941,31.9190886 28.3084044,31.7949483 28.6246085,31.7982103 L29.3373602,31.7982103 L31.2389262,29.4689038 C30.6240078,29.2815723 30.1428219,28.8002185 29.9557047,28.1852349 C29.5749441,27.1395973 30.1458613,25.9986577 31.2389262,25.6183445 C31.4769575,25.5704698 31.6666667,25.5230425 31.904698,25.5230425 C32.760179,25.5230425 33.5682327,26.046085 33.8536913,26.901566 C34.2340045,27.947651 33.6635347,29.0885906 32.5700224,29.4689038 L34.4715884,31.7982103 L35.1847875,31.7982103 C35.8501119,31.7982103 36.4205817,32.3686801 36.3731544,32.9865772 Z" id="形状" fill="#FFFFFF"></path>
            <path d="M30.8876724,22.204849 L30.9407159,22.192849 C30.9076724,22.200849 30.8746289,22.205849 30.8407159,22.211849 L30.8598463,22.211849 L30.8876724,22.204849 Z M23.9022315,29.1941577 C23.9022315,29.1641577 23.9132315,29.1341577 23.9172315,29.1031577 C23.9112315,29.1351577 23.9062315,29.1631577 23.9022315,29.1941577 Z M30.8205794,22.2138367 L30.8865794,22.2038367 C30.8665794,22.2058367 30.8435794,22.2098367 30.8205794,22.2138367 Z M23.911349,29.141387 C23.905349,29.1750153 23.901349,29.2086437 23.893349,29.241387 C23.893349,29.222803 23.901349,29.2042189 23.905349,29.1874047 C23.909349,29.1705906 23.905349,29.1688207 23.905349,29.1590861 C23.906882,29.1530703 23.9088868,29.1471562 23.911349,29.141387 Z" id="形状" fill="#000000"></path>
            <path d="M22.2724832,26.7561521 C22.9995156,24.7777735 24.3056174,23.0642653 26.0205817,21.8389262 C27.5704698,20.7239374 29.4545861,20.0966443 31.3579418,19.9897092 L31.3579418,2.68143177 C31.3579418,1.20051789 30.1574239,0 28.6765101,0 L2.68098434,0 C1.2002452,0.000247078118 -2.06139062e-08,1.20069261 -1.42108547e-14,2.68143177 L-1.42108547e-14,33.8577181 C-1.48466871e-14,35.3383849 1.20031757,36.5387025 2.68098434,36.5387025 L23.8666667,36.5387025 C21.7391499,33.8219239 21.064877,30.0348993 22.2724832,26.7561521 Z M6.6,8 L14.4,8 C15.2836556,8 16,8.7163444 16,9.6 L16,9.6 C16,10.4836556 15.2836556,11.2 14.4,11.2 L6.6,11.2 C5.7163444,11.2 5,10.4836556 5,9.6 L5,9.6 C5,8.7163444 5.7163444,8 6.6,8 Z M6.6,17 L23.4,17 C24.2836556,17 25,17.7163444 25,18.6 L25,18.6 C25,19.4836556 24.2836556,20.2 23.4,20.2 L6.6,20.2 C5.7163444,20.2 5,19.4836556 5,18.6 L5,18.6 C5,17.7163444 5.7163444,17 6.6,17 Z M6.6,25 L18.4,25 C19.2836556,25 20,25.7163444 20,26.6 L20,26.6 C20,27.4836556 19.2836556,28.2 18.4,28.2 L6.6,28.2 C5.7163444,28.2 5,27.4836556 5,26.6 L5,26.6 C5,25.7163444 5.7163444,25 6.6,25 Z" id="形状" fill="#FFFFFF"></path>
        </g>
    </g>
</svg>