<?xml version="1.0" encoding="UTF-8"?>
<svg width="40px" height="40px" viewBox="0 0 40 40" version="1.1" xmlns="http://www.w3.org/2000/svg" xmlns:xlink="http://www.w3.org/1999/xlink">
    <!-- Generator: Sketch 52.5 (67469) - http://www.bohemiancoding.com/sketch -->
    <title>组织架构</title>
    <desc>Created with Sketch.</desc>
    <g id="组织架构" stroke="none" stroke-width="1" fill="none" fill-rule="evenodd">
        <path d="M37.281802,23.6662248 L32.2205761,23.6662248 L32.2205761,22.8189907 C32.2073768,20.74818 30.5364263,19.0703207 28.4656877,19.048577 C27.0551094,19.0352697 25.6445311,19.048577 24.2361707,19.048577 L21.0401906,19.048577 L21.0401906,16.3294434 L25.5225471,16.3294434 C26.2336821,16.3312109 26.9162965,16.0499518 27.4197702,15.5477264 C27.9232439,15.045501 28.2061967,14.3635868 28.2061945,13.6524496 L28.2061945,2.71159626 C28.2056078,2.00084346 27.9223952,1.31949963 27.4189855,0.817754108 C26.9155758,0.316008583 26.233298,0.0350536353 25.5225471,0.0368204527 L14.5816937,0.0368204527 C13.8719149,0.0362319208 13.1910053,0.317778012 12.6889077,0.819459581 C12.1868102,1.32114115 11.9046998,2.00181717 11.9047,2.71159626 L11.9047,13.6546675 C11.9046998,14.3644466 12.1868102,15.0451227 12.6889077,15.5468042 C13.1910053,16.0484858 13.8719149,16.3300319 14.5816937,16.3294434 L18.8910548,16.3294434 L18.8910548,19.0374875 L11.4966082,19.0374875 C11.0550109,19.0275376 10.6148906,19.0920186 10.1947065,19.2282261 C9.07687216,19.6140425 8.19850861,20.4924061 7.81269222,21.6102404 C7.64721421,22.1938282 7.5827058,22.8014075 7.62195366,23.4067316 L7.62195366,23.5908165 L2.71819798,23.5908165 C2.0078309,23.590228 1.32635715,23.8720077 0.823843639,24.3741053 C0.321330131,24.8762028 0.0389860936,25.5574429 0.0389863374,26.2678102 L0.0389863374,37.2086636 C0.0395743069,37.9186466 0.32217796,38.5993169 0.824627664,39.1009347 C1.32707737,39.6025526 2.00821502,39.8840279 2.71819798,39.8834395 L13.6590513,39.8834395 C15.1366484,39.88344 16.3348209,38.6862602 16.3360451,37.2086636 L16.3360451,26.2678102 C16.3360451,25.5578274 16.0540055,24.8769235 15.5519717,24.3748898 C15.049938,23.8728561 14.3690342,23.5908165 13.6590513,23.5908165 L9.76443576,23.5908165 L9.76443576,22.8411696 L9.76443576,22.6193805 L9.76443576,22.5572796 L9.76443576,22.5328828 C9.7664082,22.5107478 9.7664082,22.4884812 9.76443576,22.4663461 L9.76443576,22.5040502 C9.78692384,22.3935689 9.81655799,22.2846635 9.8531514,22.1780204 C9.86328012,22.1517437 9.87437716,22.1258506 9.88641975,22.1003942 C9.93067328,22.0135663 9.97953658,21.929166 10.0328005,21.8475547 C10.063851,21.7987611 10.103773,21.7544033 10.1326056,21.7056097 L10.1059909,21.7499675 C10.1791813,21.6679056 10.2590253,21.5969331 10.32778,21.5281785 C10.3543947,21.5082174 10.3787914,21.4882565 10.4054061,21.4727312 C10.4956622,21.4192606 10.5889734,21.3711239 10.6848603,21.3285684 L10.6405025,21.3285684 C10.6848603,21.3174789 10.7336539,21.2930821 10.7780117,21.2775569 C10.8858735,21.24312 10.995434,21.2142494 11.1062595,21.1910591 C11.1483994,21.1910591 11.1927572,21.1799697 11.2304614,21.1777518 L28.7340524,21.1777518 C28.8315282,21.1982518 28.927786,21.2241674 29.0223781,21.2553779 C29.0778254,21.2731211 29.1332727,21.3019536 29.18872,21.315261 L29.1443621,21.315261 C29.231229,21.3594428 29.3156331,21.4083083 29.3972016,21.4616418 L29.4615205,21.5059995 L29.5014425,21.5503574 C29.5732184,21.6145051 29.6413406,21.6826274 29.7054884,21.7544033 L29.6788737,21.7100455 C29.7032705,21.7521854 29.7365389,21.7898895 29.7631536,21.8275937 C29.8223821,21.9168319 29.8764397,22.0093962 29.9250595,22.10483 C29.9250595,22.1225731 29.9450206,22.1491878 29.95611,22.1758025 C29.9634114,22.1930527 29.9693441,22.2108508 29.9738532,22.2290319 C30.0051397,22.3236013 30.0310564,22.4198633 30.0514793,22.5173576 L30.0514793,22.5328828 C30.052835,22.5122047 30.052835,22.49146 30.0514793,22.4707819 C30.0514793,22.5107039 30.0514793,22.5528438 30.0625688,22.5927659 L30.0625688,23.6617891 L26.3431665,23.6617891 C24.8647037,23.6617891 23.6661728,24.86032 23.6661728,26.3387828 L23.6661728,37.2796361 C23.6655843,37.9900032 23.9473641,38.671477 24.4494616,39.1739904 C24.9515591,39.6765039 25.6327992,39.958848 26.3431665,39.9588477 L37.281802,39.9588477 C37.991785,39.9594362 38.6729226,39.6779608 39.1753723,39.176343 C39.677822,38.6747252 39.9604257,37.9940549 39.9610137,37.2840719 L39.9610137,26.3432186 C39.9610146,25.6330547 39.6785999,24.9520419 39.1760223,24.4502964 C38.6734447,23.9485509 37.9919649,23.667265 37.281802,23.6684427 L37.281802,23.6662248 Z" id="路径" fill="#FFFFFF"></path>
    </g>
</svg>