<?xml version="1.0" encoding="UTF-8"?>
<svg width="40px" height="40px" viewBox="0 0 40 40" version="1.1" xmlns="http://www.w3.org/2000/svg" xmlns:xlink="http://www.w3.org/1999/xlink">
    <!-- Generator: Sketch 52.5 (67469) - http://www.bohemiancoding.com/sketch -->
    <title>产品管理</title>
    <desc>Created with Sketch.</desc>
    <g id="产品管理" stroke="none" stroke-width="1" fill="none" fill-rule="evenodd">
        <path d="M4,-7.10542736e-15 L36,-7.10542736e-15 C38.209139,-7.51123961e-15 40,1.790861 40,4 L40,36 C40,38.209139 38.209139,40 36,40 L4,40 C1.790861,40 -6.83488586e-15,38.209139 -7.10542736e-15,36 L-7.10542736e-15,4 C-7.37596886e-15,1.790861 1.790861,-6.69961511e-15 4,-7.10542736e-15 Z M15.3333333,20.5179992 L15.3333333,8.66666667 C15.3333333,7.74619208 14.5871412,7 13.6666667,7 C12.7461921,7 12,7.74619208 12,8.66666667 L12,20.3368156 C10.8175263,20.8985475 10,22.103802 10,23.5 C10,24.896198 10.8175263,26.1014525 12,26.6631844 L12,32 C12,32.9204746 12.7461921,33.6666667 13.6666667,33.6666667 C14.5871412,33.6666667 15.3333333,32.9204746 15.3333333,32 L15.3333333,26.4820008 C16.3333585,25.8658749 17,24.7607887 17,23.5 C17,22.2392113 16.3333585,21.1341251 15.3333333,20.5179992 Z M28.3333333,15.5179992 L28.3333333,11.6666667 C28.3333333,10.7461921 27.5871412,10 26.6666667,10 C25.7461921,10 25,10.7461921 25,11.6666667 L25,15.3368156 C23.8175263,15.8985475 23,17.103802 23,18.5 C23,19.896198 23.8175263,21.1014525 25,21.6631844 L25,31.6666667 C25,32.5871412 25.7461921,33.3333333 26.6666667,33.3333333 C27.5871412,33.3333333 28.3333333,32.5871412 28.3333333,31.6666667 L28.3333333,21.4820008 C29.3333585,20.8658749 30,19.7607887 30,18.5 C30,17.2392113 29.3333585,16.1341251 28.3333333,15.5179992 Z" id="合并形状" fill="#FFFFFF"></path>
    </g>
</svg>