<?xml version="1.0" encoding="UTF-8"?>
<svg width="40px" height="40px" viewBox="0 0 40 40" version="1.1" xmlns="http://www.w3.org/2000/svg" xmlns:xlink="http://www.w3.org/1999/xlink">
    <!-- Generator: Sketch 52.5 (67469) - http://www.bohemiancoding.com/sketch -->
    <title>财务资金</title>
    <desc>Created with Sketch.</desc>
    <g id="财务资金" stroke="none" stroke-width="1" fill="none" fill-rule="evenodd">
        <path d="M6,0.633512829 L33.7723577,0.633512829 C35.9814967,0.633512829 37.7723577,2.42437383 37.7723577,4.63351283 L37.7723577,35.6579031 C37.7723577,37.8670421 35.9814967,39.6579031 33.7723577,39.6579031 L6,39.6579031 C3.790861,39.6579031 2,37.8670421 2,35.6579031 L2,4.63351283 C2,2.42437383 3.790861,0.633512829 6,0.633512829 Z M17.6266498,19.3854926 L17.6266498,22.5108225 L12.9386548,22.5108225 C12.0756188,22.5108225 11.3759899,23.2104515 11.3759899,24.0734875 C11.3759899,24.9365235 12.0756188,25.6361525 12.9386548,25.6361525 L17.6266498,25.6361525 L17.6266498,30.3241474 C17.6266498,31.1871834 18.3262787,31.8868124 19.1893148,31.8868124 C20.0523508,31.8868124 20.7519797,31.1871834 20.7519797,30.3241474 L20.7519797,25.6361525 L25.4399747,25.6361525 C26.3030107,25.6361525 27.0026396,24.9365235 27.0026396,24.0734875 C27.0026396,23.2104515 26.3030107,22.5108225 25.4399747,22.5108225 L20.7519797,22.5108225 L20.7519797,19.3854926 L25.4399747,19.3854926 C26.3030107,19.3854926 27.0026396,18.6858636 27.0026396,17.8228276 C27.0026396,16.9597915 26.3030107,16.2601626 25.4399747,16.2601626 L23.0824992,16.2601626 L25.4602893,13.1754619 C25.817919,12.7345917 25.9083278,12.1344495 25.6964527,11.607786 C25.4845777,11.0811224 25.003749,10.7107872 24.4404444,10.6404059 C23.8771399,10.5700245 23.3199732,10.8106688 22.985028,11.2690107 L19.1893148,16.1931792 L15.3936015,11.2690107 C15.0586563,10.8106688 14.5014896,10.5700245 13.9381851,10.6404059 C13.3748805,10.7107872 12.8940518,11.0811224 12.6821768,11.607786 C12.4703017,12.1344495 12.5607105,12.7345917 12.9183402,13.1754619 L15.2961303,16.2601626 L12.9386548,16.2601626 C12.0756188,16.2601626 11.3759899,16.9597915 11.3759899,17.8228276 C11.3759899,18.6858636 12.0756188,19.3854926 12.9386548,19.3854926 L17.6266498,19.3854926 Z" id="合并形状" fill="#FFFFFF"></path>
    </g>
</svg>