<?xml version="1.0" encoding="UTF-8"?>
<svg width="40px" height="40px" viewBox="0 0 40 40" version="1.1" xmlns="http://www.w3.org/2000/svg" xmlns:xlink="http://www.w3.org/1999/xlink">
    <!-- Generator: Sketch 52.5 (67469) - http://www.bohemiancoding.com/sketch -->
    <title>服务管理</title>
    <desc>Created with Sketch.</desc>
    <g id="服务管理" stroke="none" stroke-width="1" fill="none" fill-rule="evenodd">
        <path d="M30.8333333,18.3333333 C35.8959435,18.3333333 40,14.2292769 40,9.16666667 C40,4.10405646 35.8959435,0 30.8333333,0 C25.7707231,0 21.6666667,4.10405646 21.6666667,9.16666667 C21.6666667,10.537109 21.6666667,13.5926645 21.6666667,18.3333333 C25.7731466,18.3333333 28.8287022,18.3333333 30.8333333,18.3333333 Z" id="椭圆_4" fill="#FFFFFF"></path>
        <path d="M9.16666667,18.3333333 C10.8800685,18.3333333 13.935624,18.3333333 18.3333333,18.3333333 C18.3333333,13.8838939 18.3333333,10.8283383 18.3333333,9.16666667 C18.3333333,4.10405646 14.2292769,0 9.16666667,0 C4.10405646,0 0,4.10405646 0,9.16666667 C0,14.2292769 4.10405646,18.3333333 9.16666667,18.3333333 Z" id="椭圆_4_拷贝" fill="#FFFFFF"></path>
        <path d="M30.8333333,40 C35.8959435,40 40,35.8959435 40,30.8333333 C40,25.7707231 35.8959435,21.6666667 30.8333333,21.6666667 C29.1155638,21.6666667 26.0600082,21.6666667 21.6666667,21.6666667 C21.6666667,26.1204738 21.6666667,29.1760294 21.6666667,30.8333333 C21.6666667,35.8959435 25.7707231,40 30.8333333,40 Z" id="椭圆_4_拷贝_2" fill="#FFFFFF"></path>
        <path d="M9.16666667,40 C14.2292769,40 18.3333333,35.8959435 18.3333333,30.8333333 C18.3333333,29.0452997 18.3333333,25.9897441 18.3333333,21.6666667 C13.809262,21.6666667 10.7537065,21.6666667 9.16666667,21.6666667 C4.10405646,21.6666667 0,25.7707231 0,30.8333333 C0,35.8959435 4.10405646,40 9.16666667,40 Z" id="椭圆_4_拷贝_3" fill="#FFFFFF"></path>
    </g>
</svg>