<?xml version="1.0" encoding="UTF-8"?>
<svg width="40px" height="40px" viewBox="0 0 40 40" version="1.1" xmlns="http://www.w3.org/2000/svg" xmlns:xlink="http://www.w3.org/1999/xlink">
    <!-- Generator: Sketch 52.5 (67469) - http://www.bohemiancoding.com/sketch -->
    <title>数据统计</title>
    <desc>Created with Sketch.</desc>
    <g id="数据统计" stroke="none" stroke-width="1" fill="none" fill-rule="evenodd">
        <path d="M0,36 L0,4 C-2.705415e-16,1.790861 1.790861,4.05812251e-16 4,0 L36,0 C38.209139,-4.05812251e-16 40,1.790861 40,4 L40,36 C40,38.209139 38.209139,40 36,40 L4,40 C1.790861,40 2.705415e-16,38.209139 0,36 Z M21.8763636,28.2828283 L30.1453833,19.0015666 C30.7503394,18.3225555 30.690306,17.2816944 30.0112949,16.6767382 C30.0078124,16.6736356 30.0043168,16.6705477 30.0008081,16.6674747 L30.0008081,16.6674747 C29.3084159,16.0610718 28.2570879,16.1243042 27.6423686,16.8093237 L21.4593939,23.6993939 L14.7911111,18.3854545 L6.52209146,27.6667163 C5.91713532,28.3457274 5.97716874,29.3865885 6.65617985,29.9915446 C6.65966232,29.9946473 6.66315796,29.9977351 6.66666667,30.0008081 L6.66666667,30.0008081 C7.35905886,30.6072111 8.41038688,30.5439787 9.02510611,29.8589591 L15.2080808,22.9688889 L21.8763636,28.2828283 Z M35.830303,11.6654545 C35.812595,11.0085372 35.5429407,10.3835873 35.0771717,9.92 C34.6170745,9.45534769 33.9853987,9.20150762 33.3317172,9.21858586 C32.6775564,9.20235633 32.0458109,9.45739433 31.5862626,9.92323232 C31.1216103,10.3833296 30.8677702,11.0150053 30.8848485,11.6686869 C30.8848485,12.360404 31.1208081,12.9422222 31.5894949,13.4141414 C32.0495922,13.8787937 32.6812679,14.1326338 33.3349495,14.1155556 C33.9891102,14.1317851 34.6208558,13.8767471 35.080404,13.4109091 C35.546173,12.9473218 35.8158273,12.3223719 35.8335354,11.6654545 L35.830303,11.6654545 Z" id="形状" fill="#FFFFFF" fill-rule="nonzero"></path>
    </g>
</svg>