<?xml version="1.0" encoding="UTF-8"?>
<svg width="40px" height="40px" viewBox="0 0 40 40" version="1.1" xmlns="http://www.w3.org/2000/svg" xmlns:xlink="http://www.w3.org/1999/xlink">
    <!-- Generator: Sketch 52.5 (67469) - http://www.bohemiancoding.com/sketch -->
    <title>设置</title>
    <desc>Created with Sketch.</desc>
    <g id="设置" stroke="none" stroke-width="1" fill="none" fill-rule="evenodd">
        <path d="M36.398815,20.0114928 C36.398815,19.0140816 36.2913448,18.2907496 36.2913448,18.2907496 C36.1936407,17.6330278 36.595444,16.8231108 37.1841976,16.4910099 L39.4107271,15.2351654 C39.9995242,14.9030218 40.202911,14.1605055 39.8627559,13.5850629 L35.6395915,6.44054458 C35.2994363,5.86510192 34.5393409,5.66592662 33.9505002,5.99789967 L31.7268481,7.25156999 C31.1380074,7.58358565 30.2170772,7.52151391 29.6803802,7.11365647 C29.6803802,7.11365647 29.0866565,6.66248521 28.2232763,6.17550335 C27.3545335,5.68592095 26.6284884,5.39683542 26.6284884,5.39683542 C25.9989703,5.14620366 25.4838545,4.39733526 25.4838545,3.73266448 L25.4838545,1.21995222 C25.4838545,0.555281438 24.9277126,0.0114715089 24.2479691,0.0114715089 L15.8047359,0.0114714672 C15.1249924,0.0114714672 14.5688505,0.555281397 14.5688505,1.21995218 L14.5688505,3.73270705 C14.5688505,4.39733522 14.0537784,5.14620361 13.4242166,5.39687799 C13.4242166,5.39687799 12.6981715,5.68592091 11.8320883,6.17294542 C10.9660921,6.66252783 10.3723248,7.11369908 10.3723248,7.11369908 C9.83562777,7.52155653 8.91482843,7.58341514 8.32611846,7.25114366 L6.10194327,5.99581069 C5.51327693,5.66353924 4.75344305,5.86258665 4.41346228,6.43815716 L0.192303511,13.5848071 C-0.147633637,14.160335 0.0558839314,14.9031071 0.64455027,15.2353785 L2.86876905,16.4907115 C3.45743538,16.8229829 3.85915157,17.6329852 3.76144739,18.290707 C3.76144739,18.290707 3.65397719,19.0140816 3.65397719,20.0114502 C3.65397719,21.0114193 3.76144739,21.7348365 3.76144739,21.7348365 C3.85915152,22.392601 3.45730459,23.2023901 2.86850742,23.5343631 L0.644855395,24.7880334 C0.0560146814,25.1200065 -0.14750293,25.8625228 0.192565011,26.438008 L4.41603455,33.5849137 C4.75614611,34.1603563 5.51602357,34.3593611 6.1047335,34.0271322 L8.32895227,32.7717993 C8.91761861,32.4395704 9.83776399,32.5022391 10.3736762,32.9111197 C10.3736762,32.9111197 10.918221,33.3265655 11.7549625,33.8057458 C12.6423654,34.313532 13.4246089,34.6254681 13.4246089,34.6254681 C14.0540398,34.8764835 14.5689812,35.6256077 14.5689812,36.2902785 L14.5689812,38.8029908 C14.5689812,39.4676615 15.1251231,40.0114715 15.8048666,40.0114715 L24.2480562,40.0114715 C24.9277997,40.0114715 25.4839416,39.4676615 25.4839416,38.8029908 L25.4839416,36.2902785 C25.4839416,35.6256077 25.9990574,34.8768672 26.6286626,34.6263633 C26.6286626,34.6263633 27.3492579,34.3396225 28.2100222,33.8552412 C29.0787214,33.3656588 29.6781566,32.9097128 29.6781566,32.9097128 C30.2146792,32.5016422 31.1353914,32.4394852 31.7241885,32.7715861 L33.9506744,34.0274306 C34.5394715,34.3595316 35.2993926,34.1603563 35.6393298,33.5847857 L39.8605322,26.4381785 C40.200513,25.862608 39.9968646,25.1200491 39.4080238,24.788076 L37.1842847,23.5343631 C36.595444,23.2023901 36.193597,22.392601 36.2913447,21.7348365 C36.2913448,21.7348365 36.398815,21.0114619 36.398815,20.0114928 Z M20.0263307,26.6781097 C16.2583342,26.6781097 13.2044804,23.6937204 13.2044804,20.0114502 C13.2044804,16.3291799 16.2583342,13.3447906 20.0263307,13.3447906 C23.7943708,13.3447906 26.8482246,16.3291799 26.8482246,20.0114502 C26.8482246,23.6937204 23.7943708,26.6781097 20.0263307,26.6781097 Z" id="形状" fill="#FFFFFF" fill-rule="nonzero"></path>
    </g>
</svg>