<?xml version="1.0" encoding="UTF-8"?>
<svg width="40px" height="40px" viewBox="0 0 40 40" version="1.1" xmlns="http://www.w3.org/2000/svg" xmlns:xlink="http://www.w3.org/1999/xlink">
    <!-- Generator: Sketch 52.5 (67469) - http://www.bohemiancoding.com/sketch -->
    <title>用户管理</title>
    <desc>Created with Sketch.</desc>
    <g id="用户管理" stroke="none" stroke-width="1" fill="none" fill-rule="evenodd">
        <path d="M22.2512103,19.6302539 C21.6155921,19.3512063 20.9604643,19.1188984 20.2910425,18.9351796 C24.6181956,17.1219405 27.0659294,12.5083978 26.1411681,7.90873414 C25.2164068,3.30907046 21.1758336,4.25862577e-07 16.4841292,4.25862577e-07 C11.7924249,4.25862577e-07 7.75185166,3.30907046 6.82709036,7.90873414 C5.90232906,12.5083978 8.35006291,17.1219405 12.6772159,18.9351796 C11.2515059,19.3322322 9.89575369,19.9473238 8.65799961,20.7586591 L8.57075176,20.8168243 C8.44278828,20.9011639 8.3148248,20.9884117 8.18976961,21.0785678 C8.10833832,21.136733 8.02690699,21.1948982 7.9454757,21.2588799 L7.9105766,21.282146 L7.71281484,21.4333755 C7.5674018,21.5438895 7.42198879,21.6602199 7.26785098,21.7910916 L7.11371313,21.9190551 L6.42154707,22.5007073 L6.45935449,22.5210651 C3.60898525,25.3072856 2.00536451,29.1270284 2.01262383,33.1129507 L2.01262383,34.0348693 C2.0206003,36.2802203 3.83883783,38.0984579 6.08418883,38.1064343 L18.7642056,38.1064343 C16.1917506,35.4045242 15.0768499,31.629688 15.768544,27.963709 C16.4602382,24.2977299 18.873986,21.1886765 22.2541185,19.6098961 L22.2512103,19.6302539 Z M27.4279144,28.5702474 C26.5637852,28.5702474 25.8632701,29.2707625 25.8632701,30.1348916 C25.8632701,30.9990208 26.5637852,31.6995359 27.4279143,31.6995359 C28.2920435,31.6995359 28.9925586,30.9990208 28.9925586,30.1348917 C28.9909581,29.2714263 28.2913797,28.5718479 27.4279144,28.5702474 Z" id="形状" fill="#FFFFFF" fill-rule="nonzero"></path>
        <path d="M27.4279144,20.2758878 C23.4388786,20.2758879 19.8426837,22.6789805 18.3164177,26.3644816 C16.7901516,30.0499826 17.6344281,34.2919949 20.4555183,37.1122532 C23.2766085,39.9325114 27.5188696,40.7755367 31.2039204,39.2481837 C34.8889711,37.7208307 37.2910029,34.1239272 37.2898265,30.1348917 C37.273847,24.6954124 32.8673981,20.290263 27.4279144,20.2758878 Z M32.9128941,30.9201221 L32.9128941,30.9433882 C32.8188104,31.3441881 32.514932,31.6625369 32.1189389,31.7751507 L31.9589846,31.8129581 C31.3638601,31.9929553 31.0094374,32.6027148 31.1475798,33.2089233 L31.1970203,33.3746941 C31.297783,33.7734696 31.174176,34.1955153 30.8742033,34.476925 L30.8567538,34.476925 C30.6514666,34.6390174 30.4325293,34.7830294 30.2023951,34.9073475 C29.9769289,35.0429247 29.7416786,35.161522 29.498596,35.2621554 L29.4782382,35.2621554 C29.3706906,35.2945549 29.2590177,35.3112079 29.1466964,35.3115958 C28.8521909,35.3124705 28.5691365,35.1975776 28.3585578,34.9916871 L28.3585578,34.9742375 L28.2567687,34.8695402 C27.8027271,34.4443945 27.0967255,34.4443945 26.6426839,34.8695402 L26.5408948,34.9771458 C26.3262631,35.1929924 26.0338795,35.313509 25.7294901,35.3115958 C25.6115544,35.3133801 25.4942799,35.2936701 25.3834071,35.2534305 C25.1429976,35.1542088 24.9106145,35.0365587 24.6883327,34.901531 C24.4569911,34.7761552 24.2362077,34.6322084 24.0281576,34.4711084 L24.010708,34.4536589 C23.7118288,34.1715783 23.5884109,33.7501786 23.6878911,33.351428 L23.7344232,33.194382 C23.80543,32.8979159 23.7596081,32.5854938 23.6064598,32.3219037 C23.4586162,32.0593221 23.2146476,31.8643557 22.9259268,31.778059 L22.783422,31.7460681 C22.3710637,31.6370128 22.0550939,31.3053007 21.9662007,30.8881312 C21.9080235,30.3662607 21.9080235,29.839541 21.9662007,29.3176704 L21.9662007,29.2944043 C22.0710291,28.9155269 22.3650238,28.6182289 22.7427063,28.5091739 L22.9084772,28.4684583 C23.5097272,28.2857369 23.864261,27.6659406 23.7169737,27.0550436 L23.6675332,26.892181 C23.5661228,26.4933936 23.6898257,26.0710204 23.9903502,25.7899502 L24.0048915,25.7899502 C24.2124771,25.6287719 24.4322218,25.483896 24.6621584,25.3566193 C24.8861314,25.2209984 25.1204945,25.1033306 25.3630493,25.0047197 L25.3892236,25.0047197 C25.4957651,24.9722757 25.6064857,24.9556186 25.7178571,24.9552793 C26.0123626,24.9544046 26.295417,25.0692975 26.5059957,25.275188 L26.6223261,25.4002432 C27.0770741,25.8207466 27.7787546,25.8207466 28.2335026,25.4002432 L28.3469248,25.2780962 C28.5567844,25.0729115 28.8386559,24.9580749 29.1321552,24.9581876 C29.2444764,24.9585754 29.3561493,24.9752284 29.4636969,25.007628 L29.5073208,25.007628 C29.7431831,25.1085896 29.9715722,25.2261856 30.1907621,25.3595275 C30.4197613,25.4835454 30.6385666,25.6255257 30.8451207,25.7841336 L30.8625703,25.8015832 C31.1604095,26.083081 31.2837385,26.5030663 31.1853872,26.9009057 L31.1853872,26.9183553 L31.1330386,27.0724931 C30.9975216,27.6742361 31.3468201,28.2791805 31.9357185,28.4626418 L32.0985811,28.5004491 C32.4941415,28.6120069 32.7980871,28.9293128 32.8925363,29.3293034 L32.9361602,29.8905978 L32.9361602,30.1377999 C32.9475949,30.3987917 32.9398186,30.6602711 32.9128941,30.9201221 Z" id="形状" fill="#FFFFFF" fill-rule="nonzero"></path>
    </g>
</svg>